<?xml version="1.0" encoding="UTF-8" standalone="no"?>
<!-- Generator: Adobe Illustrator 16.0.0, SVG Export Plug-In . SVG Version: 6.00 Build 0)  -->

<svg
   version="1.1"
   id="Layer_1"
   x="0px"
   y="0px"
   width="1472.359"
   height="579.86603"
   viewBox="0 0 1472.359 579.866"
   enable-background="new 0 0 2918.766 579.866"
   xml:space="preserve"
   sodipodi:docname="logo.svg"
   inkscape:version="1.3 (0e150ed6c4, 2023-07-21)"
   xmlns:inkscape="http://www.inkscape.org/namespaces/inkscape"
   xmlns:sodipodi="http://sodipodi.sourceforge.net/DTD/sodipodi-0.dtd"
   xmlns="http://www.w3.org/2000/svg"
   xmlns:svg="http://www.w3.org/2000/svg"
   xmlns:rdf="http://www.w3.org/1999/02/22-rdf-syntax-ns#"
   xmlns:cc="http://creativecommons.org/ns#"
   xmlns:dc="http://purl.org/dc/elements/1.1/"><metadata
   id="metadata19"><rdf:RDF><cc:Work
       rdf:about=""><dc:format>image/svg+xml</dc:format><dc:type
         rdf:resource="http://purl.org/dc/dcmitype/StillImage" /></cc:Work></rdf:RDF></metadata><defs
   id="defs17">&#10;	&#10;	&#10;	&#10;	&#10;	&#10;</defs><sodipodi:namedview
   pagecolor="#ffffff"
   bordercolor="#666666"
   borderopacity="1"
   objecttolerance="10"
   gridtolerance="10"
   guidetolerance="10"
   inkscape:pageopacity="0"
   inkscape:pageshadow="2"
   inkscape:window-width="1920"
   inkscape:window-height="1017"
   id="namedview15"
   showgrid="false"
   inkscape:zoom="0.27811704"
   inkscape:cx="1479.5929"
   inkscape:cy="285.85088"
   inkscape:window-x="1672"
   inkscape:window-y="-8"
   inkscape:window-maximized="1"
   inkscape:current-layer="Layer_1"
   inkscape:showpageshadow="2"
   inkscape:pagecheckerboard="0"
   inkscape:deskcolor="#d1d1d1" />&#10;&#10;<path
   id="path1"
   style="fill:#aaeeff;fill-opacity:1;stroke:none;stroke-width:0.669127;stroke-linejoin:round;paint-order:stroke fill markers"
   d="M 1028.8995,3.2351039 A 269.95714,263.32659 0 0 0 780.20275,165.3731 a 196.46399,191.63855 0 0 0 -123.7714,-42.84085 196.46399,191.63855 0 0 0 -160.2611,81.495 135.4439,132.11719 0 0 0 -125.2087,-81.7495 135.4439,132.11719 0 0 0 -125.7479,83.88503 187.83962,153.53809 0 0 0 -57.3733,-7.38311 A 187.83962,153.53809 0 0 0 -1.4560343e-4,352.31741 187.83962,153.53809 0 0 0 187.84035,505.85652 a 187.83962,153.53809 0 0 0 97.7134,-22.6611 135.4439,132.11719 0 0 0 129.3995,93.4355 135.4439,132.11719 0 0 0 131.9182,-103.68582 196.46399,191.63855 0 0 0 109.5599,32.863 196.46399,191.63855 0 0 0 46.3208,-5.84646 135.4439,132.11719 0 0 0 122.8891,76.66928 135.4439,132.11719 0 0 0 114.6594,-61.97222 269.95714,263.32659 0 0 0 88.59885,15.22958 269.95714,263.32659 0 0 0 258.2581,-187.1421 135.4439,132.11719 0 0 0 49.758,9.57123 A 135.4439,132.11719 0 0 0 1472.3592,220.20009 135.4439,132.11719 0 0 0 1336.9156,88.084188 135.4439,132.11719 0 0 0 1251.6279,117.86421 269.95714,263.32659 0 0 0 1028.8995,3.2351039 Z" /><text
   xml:space="preserve"
   style="font-size:213.667px;text-align:center;text-anchor:middle;fill:#1a1a1a;fill-opacity:0.705882;stroke:none;stroke-width:2.10303;stroke-linejoin:round;paint-order:stroke fill markers"
   x="699.63531"
   y="446.80783"
   id="text1"
   transform="rotate(-6.7039918)"><tspan
     sodipodi:role="line"
     id="tspan1"
     x="699.63531"
     y="446.80783"
     style="font-style:normal;font-variant:normal;font-weight:normal;font-stretch:normal;font-family:Impact;-inkscape-font-specification:Impact;fill:#006680;stroke:none;stroke-width:2.10303">Wapujemy.com</tspan></text></svg>
